<svg xmlns="http://www.w3.org/2000/svg" xmlns:xlink="http://www.w3.org/1999/xlink" width="480" zoomAndPan="magnify" viewBox="14 48 240 42" height="84" preserveAspectRatio="xMidYMid meet" version="1.0"><defs><g/><clipPath id="3b23407f32"><path d="M 36 52.453125 L 44 52.453125 L 44 59 L 36 59 Z M 36 52.453125 " clip-rule="nonzero"/></clipPath><clipPath id="d4e9249cb4"><path d="M 76.007812 49.917969 L 77.59375 49.917969 L 77.59375 51.507812 L 76.007812 51.507812 Z M 76.007812 49.917969 " clip-rule="nonzero"/></clipPath><clipPath id="77a035fddf"><path d="M 76.800781 49.917969 C 76.363281 49.917969 76.007812 50.277344 76.007812 50.714844 C 76.007812 51.152344 76.363281 51.507812 76.800781 51.507812 C 77.238281 51.507812 77.59375 51.152344 77.59375 50.714844 C 77.59375 50.277344 77.238281 49.917969 76.800781 49.917969 Z M 76.800781 49.917969 " clip-rule="nonzero"/></clipPath><clipPath id="31273e6697"><path d="M 0.0078125 0.917969 L 1.59375 0.917969 L 1.59375 2.507812 L 0.0078125 2.507812 Z M 0.0078125 0.917969 " clip-rule="nonzero"/></clipPath><clipPath id="07a6688cb4"><path d="M 0.800781 0.917969 C 0.363281 0.917969 0.0078125 1.277344 0.0078125 1.714844 C 0.0078125 2.152344 0.363281 2.507812 0.800781 2.507812 C 1.238281 2.507812 1.59375 2.152344 1.59375 1.714844 C 1.59375 1.277344 1.238281 0.917969 0.800781 0.917969 Z M 0.800781 0.917969 " clip-rule="nonzero"/></clipPath><clipPath id="a39f4a5e9c"><rect x="0" width="2" y="0" height="3"/></clipPath><clipPath id="3ea79d6bdf"><path d="M 82.710938 49.917969 L 84.300781 49.917969 L 84.300781 51.507812 L 82.710938 51.507812 Z M 82.710938 49.917969 " clip-rule="nonzero"/></clipPath><clipPath id="a69beee384"><path d="M 83.503906 49.917969 C 83.066406 49.917969 82.710938 50.277344 82.710938 50.714844 C 82.710938 51.152344 83.066406 51.507812 83.503906 51.507812 C 83.945312 51.507812 84.300781 51.152344 84.300781 50.714844 C 84.300781 50.277344 83.945312 49.917969 83.503906 49.917969 Z M 83.503906 49.917969 " clip-rule="nonzero"/></clipPath><clipPath id="412e0e68f6"><path d="M 0.710938 0.917969 L 2.300781 0.917969 L 2.300781 2.507812 L 0.710938 2.507812 Z M 0.710938 0.917969 " clip-rule="nonzero"/></clipPath><clipPath id="8b9ce92ce7"><path d="M 1.503906 0.917969 C 1.066406 0.917969 0.710938 1.277344 0.710938 1.714844 C 0.710938 2.152344 1.066406 2.507812 1.503906 2.507812 C 1.945312 2.507812 2.300781 2.152344 2.300781 1.714844 C 2.300781 1.277344 1.945312 0.917969 1.503906 0.917969 Z M 1.503906 0.917969 " clip-rule="nonzero"/></clipPath><clipPath id="e2a6cfa266"><rect x="0" width="3" y="0" height="3"/></clipPath><clipPath id="f6ee23e3a3"><rect x="0" width="22" y="0" height="26"/></clipPath><clipPath id="ca027afa58"><rect x="0" width="54" y="0" height="10"/></clipPath><clipPath id="3f411eaa21"><rect x="0" width="22" y="0" height="26"/></clipPath><clipPath id="4a2b8567c9"><rect x="0" width="22" y="0" height="26"/></clipPath><clipPath id="a771550a1a"><rect x="0" width="131" y="0" height="24"/></clipPath></defs><path fill="#539cd8" d="M 42.980469 70.519531 C 42.167969 71.648438 41.101562 72.796875 39.992188 73.855469 C 38.984375 77.230469 36.332031 80.035156 32.699219 81.085938 C 29.53125 82 26.285156 81.390625 23.746094 79.691406 C 23.03125 79.214844 22.382812 78.65625 21.804688 78.019531 C 20.726562 76.84375 19.898438 75.414062 19.425781 73.785156 C 18.183594 69.507812 19.734375 65.085938 23.011719 62.46875 L 23.503906 61.203125 C 23.527344 61.144531 23.703125 60.707031 24.0625 60.117188 C 18.242188 62.847656 15.113281 69.472656 16.957031 75.835938 C 19.003906 82.886719 26.390625 86.953125 33.460938 84.910156 C 39.839844 83.070312 43.773438 76.890625 42.980469 70.519531 Z M 42.980469 70.519531 " fill-opacity="1" fill-rule="nonzero"/><path fill="#539cd8" d="M 46.941406 58.78125 C 46.941406 58.78125 45.640625 64.203125 40.203125 63.878906 C 39.339844 63.828125 38.367188 63.628906 37.28125 63.234375 C 36.460938 62.945312 35.566406 62.539062 34.601562 62.003906 C 34.601562 62.003906 33.953125 61.539062 32.824219 61.132812 L 32.8125 61.128906 C 32.296875 60.945312 31.6875 60.773438 30.992188 60.664062 C 29.296875 60.394531 27.105469 60.484375 24.648438 61.648438 C 24.648438 61.648438 24.695312 61.519531 24.808594 61.304688 C 25.023438 60.867188 25.480469 60.074219 26.230469 59.3125 C 27.785156 57.734375 30.597656 56.3125 35.132812 58.550781 C 35.132812 58.550781 41.683594 62.835938 46.941406 58.78125 Z M 46.941406 58.78125 " fill-opacity="1" fill-rule="nonzero"/><path fill="#ffde59" d="M 42.652344 68.792969 C 42.132812 69.695312 41.316406 70.6875 40.402344 71.652344 C 40.40625 71.65625 40.402344 71.65625 40.402344 71.65625 C 37.917969 74.277344 34.722656 76.710938 34.722656 76.710938 C 40.449219 69.402344 38.261719 68.039062 37.769531 67.824219 C 35.226562 66.710938 34.132812 69.917969 34.132812 69.917969 C 29.824219 78.613281 23.054688 78.511719 23.054688 78.511719 C 33.898438 67.9375 32.664062 62.484375 32.664062 62.484375 C 35.9375 64.523438 37.449219 65.019531 38.820312 65.167969 C 39.359375 65.230469 39.875 65.242188 40.46875 65.273438 C 40.742188 65.285156 40.992188 65.308594 41.214844 65.34375 C 43.597656 65.695312 43.640625 67.09375 42.652344 68.792969 Z M 42.652344 68.792969 " fill-opacity="1" fill-rule="nonzero"/><g clip-path="url(#3b23407f32)"><path fill="#ffde59" d="M 43.261719 55.65625 C 43.261719 56.082031 43.179688 56.492188 43.015625 56.882812 C 42.855469 57.277344 42.621094 57.625 42.320312 57.925781 C 42.019531 58.226562 41.671875 58.457031 41.277344 58.621094 C 40.886719 58.78125 40.476562 58.863281 40.050781 58.863281 C 39.625 58.863281 39.214844 58.78125 38.820312 58.621094 C 38.425781 58.457031 38.078125 58.226562 37.777344 57.925781 C 37.476562 57.625 37.246094 57.277344 37.082031 56.882812 C 36.917969 56.492188 36.835938 56.082031 36.835938 55.65625 C 36.835938 55.234375 36.917969 54.824219 37.082031 54.429688 C 37.246094 54.039062 37.476562 53.691406 37.777344 53.390625 C 38.078125 53.089844 38.425781 52.859375 38.820312 52.695312 C 39.214844 52.53125 39.625 52.453125 40.050781 52.453125 C 40.476562 52.453125 40.886719 52.53125 41.277344 52.695312 C 41.671875 52.859375 42.019531 53.089844 42.320312 53.390625 C 42.621094 53.691406 42.855469 54.039062 43.015625 54.429688 C 43.179688 54.824219 43.261719 55.234375 43.261719 55.65625 Z M 43.261719 55.65625 " fill-opacity="1" fill-rule="nonzero"/></g><g clip-path="url(#d4e9249cb4)"><g clip-path="url(#77a035fddf)"><g transform="matrix(1, 0, 0, 1, 76, 49)"><g clip-path="url(#a39f4a5e9c)"><g clip-path="url(#31273e6697)"><g clip-path="url(#07a6688cb4)"><path fill="#539cd8" d="M 0.0078125 0.917969 L 1.59375 0.917969 L 1.59375 2.507812 L 0.0078125 2.507812 Z M 0.0078125 0.917969 " fill-opacity="1" fill-rule="nonzero"/></g></g></g></g></g></g><g clip-path="url(#3ea79d6bdf)"><g clip-path="url(#a69beee384)"><g transform="matrix(1, 0, 0, 1, 82, 49)"><g clip-path="url(#e2a6cfa266)"><g clip-path="url(#412e0e68f6)"><g clip-path="url(#8b9ce92ce7)"><path fill="#539cd8" d="M 0.710938 0.917969 L 2.300781 0.917969 L 2.300781 2.507812 L 0.710938 2.507812 Z M 0.710938 0.917969 " fill-opacity="1" fill-rule="nonzero"/></g></g></g></g></g></g><g transform="matrix(1, 0, 0, 1, 83, 60)"><g clip-path="url(#f6ee23e3a3)"><g fill="#ffde59" fill-opacity="1"><g transform="translate(1.018945, 19.083341)"><g><path d="M 14.203125 -5.96875 L 14.203125 -5.375 C 14.203125 -5.15625 14.117188 -4.957031 13.953125 -4.78125 C 13.796875 -4.613281 13.601562 -4.515625 13.375 -4.484375 C 12.925781 -4.410156 12.421875 -4.347656 11.859375 -4.296875 C 11.304688 -4.253906 10.785156 -4.234375 10.296875 -4.234375 L 2.953125 -4.234375 C 2.660156 -4.234375 2.414062 -4.316406 2.21875 -4.484375 C 2.03125 -4.660156 1.9375 -4.878906 1.9375 -5.140625 L 1.9375 -10.578125 C 1.9375 -10.816406 2.03125 -11.023438 2.21875 -11.203125 C 2.414062 -11.390625 2.660156 -11.484375 2.953125 -11.484375 L 8.328125 -11.484375 L 8.328125 -13.71875 L 2.875 -13.71875 C 2.59375 -13.71875 2.351562 -13.800781 2.15625 -13.96875 C 1.96875 -14.144531 1.875 -14.359375 1.875 -14.609375 L 1.875 -15.3125 C 1.875 -15.550781 1.96875 -15.757812 2.15625 -15.9375 C 2.351562 -16.125 2.59375 -16.21875 2.875 -16.21875 L 10.46875 -16.21875 C 10.738281 -16.21875 10.972656 -16.125 11.171875 -15.9375 C 11.378906 -15.757812 11.484375 -15.550781 11.484375 -15.3125 L 11.484375 -9.953125 C 11.484375 -9.691406 11.378906 -9.472656 11.171875 -9.296875 C 10.972656 -9.128906 10.738281 -9.046875 10.46875 -9.046875 L 5.09375 -9.046875 L 5.09375 -6.734375 L 10.609375 -6.734375 C 10.929688 -6.734375 11.316406 -6.742188 11.765625 -6.765625 C 12.222656 -6.785156 12.660156 -6.820312 13.078125 -6.875 C 13.390625 -6.894531 13.65625 -6.816406 13.875 -6.640625 C 14.09375 -6.460938 14.203125 -6.238281 14.203125 -5.96875 Z M 15.15625 -12.21875 L 15.15625 -15.609375 C 15.15625 -15.847656 15.253906 -16.054688 15.453125 -16.234375 C 15.660156 -16.410156 15.898438 -16.5 16.171875 -16.5 L 17.3125 -16.5 C 17.582031 -16.5 17.816406 -16.410156 18.015625 -16.234375 C 18.222656 -16.054688 18.328125 -15.847656 18.328125 -15.609375 L 18.328125 -2.609375 C 18.328125 -2.359375 18.222656 -2.144531 18.015625 -1.96875 C 17.816406 -1.800781 17.582031 -1.71875 17.3125 -1.71875 L 16.171875 -1.71875 C 15.898438 -1.71875 15.660156 -1.800781 15.453125 -1.96875 C 15.253906 -2.144531 15.15625 -2.359375 15.15625 -2.609375 L 15.15625 -9.703125 L 13.265625 -9.703125 C 12.972656 -9.703125 12.726562 -9.785156 12.53125 -9.953125 C 12.34375 -10.128906 12.25 -10.347656 12.25 -10.609375 L 12.25 -11.328125 C 12.25 -11.566406 12.34375 -11.773438 12.53125 -11.953125 C 12.726562 -12.128906 12.972656 -12.21875 13.265625 -12.21875 Z M 5.78125 -3.359375 L 6.9375 -3.359375 C 7.207031 -3.359375 7.441406 -3.265625 7.640625 -3.078125 C 7.847656 -2.898438 7.953125 -2.691406 7.953125 -2.453125 L 7.953125 0.78125 L 17.625 0.78125 C 17.914062 0.78125 18.15625 0.867188 18.34375 1.046875 C 18.539062 1.234375 18.640625 1.445312 18.640625 1.6875 L 18.640625 2.390625 C 18.640625 2.640625 18.539062 2.847656 18.34375 3.015625 C 18.15625 3.191406 17.914062 3.28125 17.625 3.28125 L 5.78125 3.28125 C 5.507812 3.28125 5.269531 3.191406 5.0625 3.015625 C 4.863281 2.847656 4.765625 2.640625 4.765625 2.390625 L 4.765625 -2.453125 C 4.765625 -2.691406 4.863281 -2.898438 5.0625 -3.078125 C 5.269531 -3.265625 5.507812 -3.359375 5.78125 -3.359375 Z M 5.78125 -3.359375 "/></g></g></g></g></g><g transform="matrix(1, 0, 0, 1, 50, 51)"><g clip-path="url(#ca027afa58)"><g fill="#ffde59" fill-opacity="1"><g transform="translate(0.967818, 7.103312)"><g><path d="M 2.953125 -4.625 L 2.953125 -5.234375 C 2.953125 -5.316406 2.984375 -5.382812 3.046875 -5.4375 C 3.117188 -5.5 3.203125 -5.53125 3.296875 -5.53125 L 3.6875 -5.53125 C 3.78125 -5.53125 3.859375 -5.5 3.921875 -5.4375 C 3.992188 -5.382812 4.03125 -5.316406 4.03125 -5.234375 L 4.03125 -4.625 C 4.03125 -4.34375 4.09375 -4.078125 4.21875 -3.828125 C 4.34375 -3.585938 4.5 -3.367188 4.6875 -3.171875 C 4.882812 -2.972656 5.101562 -2.800781 5.34375 -2.65625 C 5.59375 -2.507812 5.84375 -2.394531 6.09375 -2.3125 C 6.207031 -2.269531 6.28125 -2.195312 6.3125 -2.09375 C 6.34375 -2 6.3125 -1.90625 6.21875 -1.8125 L 6.078125 -1.65625 C 6.035156 -1.625 5.976562 -1.597656 5.90625 -1.578125 C 5.832031 -1.566406 5.773438 -1.566406 5.734375 -1.578125 C 5.242188 -1.734375 4.800781 -1.957031 4.40625 -2.25 C 4.019531 -2.550781 3.71875 -2.878906 3.5 -3.234375 C 3.394531 -3.054688 3.257812 -2.878906 3.09375 -2.703125 C 2.9375 -2.535156 2.757812 -2.378906 2.5625 -2.234375 C 2.375 -2.085938 2.164062 -1.957031 1.9375 -1.84375 C 1.71875 -1.726562 1.503906 -1.640625 1.296875 -1.578125 C 1.242188 -1.554688 1.179688 -1.550781 1.109375 -1.5625 C 1.035156 -1.582031 0.984375 -1.609375 0.953125 -1.640625 L 0.78125 -1.8125 C 0.695312 -1.894531 0.664062 -1.988281 0.6875 -2.09375 C 0.71875 -2.195312 0.796875 -2.269531 0.921875 -2.3125 C 1.179688 -2.40625 1.429688 -2.523438 1.671875 -2.671875 C 1.921875 -2.828125 2.140625 -3.003906 2.328125 -3.203125 C 2.523438 -3.398438 2.675781 -3.617188 2.78125 -3.859375 C 2.894531 -4.097656 2.953125 -4.351562 2.953125 -4.625 Z M 0.421875 0.140625 L 0.421875 -0.09375 C 0.421875 -0.175781 0.453125 -0.25 0.515625 -0.3125 C 0.585938 -0.375 0.671875 -0.40625 0.765625 -0.40625 L 6.21875 -0.40625 C 6.3125 -0.40625 6.390625 -0.375 6.453125 -0.3125 C 6.523438 -0.25 6.5625 -0.175781 6.5625 -0.09375 L 6.5625 0.140625 C 6.5625 0.222656 6.523438 0.289062 6.453125 0.34375 C 6.390625 0.40625 6.3125 0.4375 6.21875 0.4375 L 0.765625 0.4375 C 0.671875 0.4375 0.585938 0.40625 0.515625 0.34375 C 0.453125 0.289062 0.421875 0.222656 0.421875 0.140625 Z M 0.421875 0.140625 "/></g></g></g><g fill="#ffde59" fill-opacity="1"><g transform="translate(7.802094, 7.103312)"><g><path d="M 0.484375 -0.796875 L 0.484375 -5.171875 C 0.484375 -5.253906 0.519531 -5.320312 0.59375 -5.375 C 0.664062 -5.4375 0.742188 -5.46875 0.828125 -5.46875 L 3.546875 -5.46875 C 3.640625 -5.46875 3.71875 -5.4375 3.78125 -5.375 C 3.851562 -5.320312 3.890625 -5.253906 3.890625 -5.171875 L 3.890625 -0.796875 C 3.890625 -0.710938 3.851562 -0.640625 3.78125 -0.578125 C 3.71875 -0.523438 3.640625 -0.5 3.546875 -0.5 L 0.828125 -0.5 C 0.742188 -0.5 0.664062 -0.523438 0.59375 -0.578125 C 0.519531 -0.640625 0.484375 -0.710938 0.484375 -0.796875 Z M 1.546875 -4.625 L 1.546875 -1.34375 L 2.8125 -1.34375 L 2.8125 -4.625 Z M 5.1875 -5.609375 L 5.5625 -5.609375 C 5.664062 -5.609375 5.75 -5.578125 5.8125 -5.515625 C 5.875 -5.453125 5.90625 -5.382812 5.90625 -5.3125 L 5.90625 -3.546875 L 6.515625 -3.546875 C 6.597656 -3.546875 6.675781 -3.515625 6.75 -3.453125 C 6.820312 -3.398438 6.859375 -3.332031 6.859375 -3.25 L 6.859375 -2.96875 C 6.859375 -2.875 6.820312 -2.796875 6.75 -2.734375 C 6.675781 -2.679688 6.597656 -2.65625 6.515625 -2.65625 L 5.90625 -2.65625 L 5.90625 0.8125 C 5.90625 0.894531 5.875 0.96875 5.8125 1.03125 C 5.75 1.09375 5.664062 1.125 5.5625 1.125 L 5.1875 1.125 C 5.09375 1.125 5.007812 1.09375 4.9375 1.03125 C 4.875 0.96875 4.84375 0.894531 4.84375 0.8125 L 4.84375 -5.3125 C 4.84375 -5.382812 4.875 -5.453125 4.9375 -5.515625 C 5.007812 -5.578125 5.09375 -5.609375 5.1875 -5.609375 Z M 5.1875 -5.609375 "/></g></g></g><g fill="#ffde59" fill-opacity="1"><g transform="translate(14.63637, 7.103312)"><g><path d="M 5.78125 -3.4375 L 5.78125 -3.203125 C 5.78125 -3.109375 5.742188 -3.03125 5.671875 -2.96875 C 5.609375 -2.914062 5.53125 -2.890625 5.4375 -2.890625 L 2.1875 -2.890625 L 2.1875 -2.046875 L 5.578125 -2.046875 C 5.679688 -2.046875 5.765625 -2.015625 5.828125 -1.953125 C 5.890625 -1.890625 5.921875 -1.816406 5.921875 -1.734375 L 5.921875 -1.515625 C 5.921875 -1.429688 5.890625 -1.359375 5.828125 -1.296875 C 5.765625 -1.234375 5.679688 -1.203125 5.578125 -1.203125 L 1.453125 -1.203125 C 1.359375 -1.203125 1.273438 -1.234375 1.203125 -1.296875 C 1.140625 -1.359375 1.109375 -1.429688 1.109375 -1.515625 L 1.109375 -5.171875 C 1.109375 -5.253906 1.140625 -5.320312 1.203125 -5.375 C 1.273438 -5.4375 1.359375 -5.46875 1.453125 -5.46875 L 5.5 -5.46875 C 5.59375 -5.46875 5.671875 -5.4375 5.734375 -5.375 C 5.804688 -5.320312 5.84375 -5.253906 5.84375 -5.171875 L 5.84375 -4.9375 C 5.84375 -4.84375 5.804688 -4.765625 5.734375 -4.703125 C 5.671875 -4.648438 5.59375 -4.625 5.5 -4.625 L 2.1875 -4.625 L 2.1875 -3.734375 L 5.4375 -3.734375 C 5.53125 -3.734375 5.609375 -3.703125 5.671875 -3.640625 C 5.742188 -3.578125 5.78125 -3.507812 5.78125 -3.4375 Z M 0.765625 -0.390625 L 6.21875 -0.390625 C 6.3125 -0.390625 6.390625 -0.359375 6.453125 -0.296875 C 6.523438 -0.234375 6.5625 -0.160156 6.5625 -0.078125 L 6.5625 0.140625 C 6.5625 0.222656 6.523438 0.289062 6.453125 0.34375 C 6.390625 0.40625 6.3125 0.4375 6.21875 0.4375 L 0.765625 0.4375 C 0.671875 0.4375 0.585938 0.40625 0.515625 0.34375 C 0.453125 0.289062 0.421875 0.222656 0.421875 0.140625 L 0.421875 -0.078125 C 0.421875 -0.160156 0.453125 -0.234375 0.515625 -0.296875 C 0.585938 -0.359375 0.671875 -0.390625 0.765625 -0.390625 Z M 0.765625 -0.390625 "/></g></g></g><g fill="#ffde59" fill-opacity="1"><g transform="translate(21.470646, 7.103312)"><g/></g></g><g fill="#539cd8" fill-opacity="1"><g transform="translate(23.279385, 7.103312)"><g><path d="M 2.1875 0.28125 L 5.71875 0.28125 C 5.800781 0.28125 5.878906 0.304688 5.953125 0.359375 C 6.023438 0.421875 6.0625 0.492188 6.0625 0.578125 L 6.0625 0.796875 C 6.0625 0.890625 6.023438 0.960938 5.953125 1.015625 C 5.878906 1.078125 5.800781 1.109375 5.71875 1.109375 L 1.453125 1.109375 C 1.347656 1.109375 1.265625 1.078125 1.203125 1.015625 C 1.140625 0.960938 1.109375 0.890625 1.109375 0.796875 L 1.109375 -0.765625 C 1.109375 -0.835938 1.140625 -0.90625 1.203125 -0.96875 C 1.265625 -1.03125 1.347656 -1.0625 1.453125 -1.0625 L 1.84375 -1.0625 C 1.925781 -1.0625 2.003906 -1.03125 2.078125 -0.96875 C 2.148438 -0.90625 2.1875 -0.835938 2.1875 -0.765625 Z M 1.046875 -4.1875 C 1.046875 -4.5 1.128906 -4.757812 1.296875 -4.96875 C 1.460938 -5.175781 1.671875 -5.335938 1.921875 -5.453125 C 2.171875 -5.578125 2.4375 -5.664062 2.71875 -5.71875 C 3.007812 -5.769531 3.273438 -5.796875 3.515625 -5.796875 C 3.773438 -5.796875 4.050781 -5.769531 4.34375 -5.71875 C 4.632812 -5.664062 4.90625 -5.578125 5.15625 -5.453125 C 5.394531 -5.328125 5.59375 -5.160156 5.75 -4.953125 C 5.914062 -4.742188 6 -4.488281 6 -4.1875 C 6 -3.875 5.914062 -3.609375 5.75 -3.390625 C 5.582031 -3.179688 5.375 -3.019531 5.125 -2.90625 C 4.875 -2.78125 4.601562 -2.691406 4.3125 -2.640625 C 4.019531 -2.597656 3.753906 -2.578125 3.515625 -2.578125 C 3.253906 -2.578125 2.976562 -2.601562 2.6875 -2.65625 C 2.40625 -2.707031 2.140625 -2.796875 1.890625 -2.921875 C 1.648438 -3.046875 1.445312 -3.210938 1.28125 -3.421875 C 1.125 -3.628906 1.046875 -3.882812 1.046875 -4.1875 Z M 4.90625 -4.1875 C 4.90625 -4.34375 4.851562 -4.472656 4.75 -4.578125 C 4.65625 -4.679688 4.535156 -4.765625 4.390625 -4.828125 C 4.253906 -4.898438 4.101562 -4.945312 3.9375 -4.96875 C 3.78125 -5 3.640625 -5.015625 3.515625 -5.015625 C 3.378906 -5.015625 3.234375 -5 3.078125 -4.96875 C 2.929688 -4.9375 2.789062 -4.882812 2.65625 -4.8125 C 2.507812 -4.75 2.390625 -4.664062 2.296875 -4.5625 C 2.210938 -4.457031 2.171875 -4.332031 2.171875 -4.1875 C 2.171875 -4.019531 2.21875 -3.882812 2.3125 -3.78125 C 2.40625 -3.675781 2.523438 -3.59375 2.671875 -3.53125 C 2.804688 -3.46875 2.953125 -3.425781 3.109375 -3.40625 C 3.265625 -3.382812 3.398438 -3.375 3.515625 -3.375 C 3.648438 -3.375 3.796875 -3.382812 3.953125 -3.40625 C 4.117188 -3.4375 4.269531 -3.476562 4.40625 -3.53125 C 4.539062 -3.59375 4.65625 -3.675781 4.75 -3.78125 C 4.851562 -3.882812 4.90625 -4.019531 4.90625 -4.1875 Z M 4.28125 -1.453125 L 4.28125 -0.578125 C 4.28125 -0.484375 4.242188 -0.40625 4.171875 -0.34375 C 4.109375 -0.289062 4.03125 -0.265625 3.9375 -0.265625 L 3.546875 -0.265625 C 3.453125 -0.265625 3.367188 -0.289062 3.296875 -0.34375 C 3.234375 -0.40625 3.203125 -0.484375 3.203125 -0.578125 L 3.203125 -1.453125 L 0.671875 -1.453125 C 0.578125 -1.453125 0.492188 -1.476562 0.421875 -1.53125 C 0.359375 -1.59375 0.328125 -1.671875 0.328125 -1.765625 L 0.328125 -1.96875 C 0.328125 -2.050781 0.359375 -2.125 0.421875 -2.1875 C 0.492188 -2.25 0.578125 -2.28125 0.671875 -2.28125 L 6.328125 -2.28125 C 6.429688 -2.28125 6.515625 -2.25 6.578125 -2.1875 C 6.640625 -2.125 6.671875 -2.050781 6.671875 -1.96875 L 6.671875 -1.765625 C 6.671875 -1.671875 6.640625 -1.59375 6.578125 -1.53125 C 6.515625 -1.476562 6.429688 -1.453125 6.328125 -1.453125 Z M 4.28125 -1.453125 "/></g></g></g><g fill="#539cd8" fill-opacity="1"><g transform="translate(30.113661, 7.103312)"><g><path d="M 3.015625 -2.578125 L 3.015625 -3.03125 L 1.421875 -3.03125 C 1.328125 -3.03125 1.242188 -3.054688 1.171875 -3.109375 C 1.109375 -3.171875 1.078125 -3.25 1.078125 -3.34375 L 1.078125 -5.265625 C 1.078125 -5.335938 1.109375 -5.40625 1.171875 -5.46875 C 1.242188 -5.53125 1.328125 -5.5625 1.421875 -5.5625 L 5.609375 -5.5625 C 5.703125 -5.5625 5.78125 -5.53125 5.84375 -5.46875 C 5.914062 -5.40625 5.953125 -5.335938 5.953125 -5.265625 L 5.953125 -5.03125 C 5.953125 -4.945312 5.914062 -4.875 5.84375 -4.8125 C 5.78125 -4.757812 5.703125 -4.734375 5.609375 -4.734375 L 2.140625 -4.734375 L 2.140625 -3.859375 L 5.6875 -3.859375 C 5.769531 -3.859375 5.84375 -3.828125 5.90625 -3.765625 C 5.976562 -3.710938 6.015625 -3.644531 6.015625 -3.5625 L 6.015625 -3.34375 C 6.015625 -3.25 5.976562 -3.171875 5.90625 -3.109375 C 5.84375 -3.054688 5.769531 -3.03125 5.6875 -3.03125 L 4.078125 -3.03125 L 4.078125 -2.578125 L 6.328125 -2.578125 C 6.429688 -2.578125 6.515625 -2.546875 6.578125 -2.484375 C 6.640625 -2.421875 6.671875 -2.351562 6.671875 -2.28125 L 6.671875 -2.046875 C 6.671875 -1.960938 6.640625 -1.890625 6.578125 -1.828125 C 6.515625 -1.773438 6.429688 -1.75 6.328125 -1.75 L 0.671875 -1.75 C 0.578125 -1.75 0.492188 -1.773438 0.421875 -1.828125 C 0.359375 -1.890625 0.328125 -1.960938 0.328125 -2.046875 L 0.328125 -2.28125 C 0.328125 -2.351562 0.359375 -2.421875 0.421875 -2.484375 C 0.492188 -2.546875 0.578125 -2.578125 0.671875 -2.578125 Z M 1.0625 -0.0625 C 1.0625 -0.351562 1.144531 -0.59375 1.3125 -0.78125 C 1.488281 -0.976562 1.707031 -1.128906 1.96875 -1.234375 C 2.226562 -1.347656 2.5 -1.425781 2.78125 -1.46875 C 3.070312 -1.507812 3.328125 -1.53125 3.546875 -1.53125 C 3.785156 -1.53125 4.046875 -1.507812 4.328125 -1.46875 C 4.617188 -1.425781 4.890625 -1.347656 5.140625 -1.234375 C 5.390625 -1.117188 5.597656 -0.96875 5.765625 -0.78125 C 5.941406 -0.59375 6.03125 -0.351562 6.03125 -0.0625 C 6.03125 0.238281 5.941406 0.484375 5.765625 0.671875 C 5.585938 0.859375 5.367188 1.003906 5.109375 1.109375 C 4.847656 1.222656 4.578125 1.300781 4.296875 1.34375 C 4.015625 1.382812 3.765625 1.40625 3.546875 1.40625 C 3.304688 1.40625 3.039062 1.378906 2.75 1.328125 C 2.46875 1.285156 2.203125 1.207031 1.953125 1.09375 C 1.691406 0.976562 1.476562 0.828125 1.3125 0.640625 C 1.144531 0.460938 1.0625 0.226562 1.0625 -0.0625 Z M 4.9375 -0.0625 C 4.9375 -0.207031 4.878906 -0.320312 4.765625 -0.40625 C 4.660156 -0.5 4.53125 -0.570312 4.375 -0.625 C 4.238281 -0.675781 4.085938 -0.710938 3.921875 -0.734375 C 3.765625 -0.753906 3.640625 -0.765625 3.546875 -0.765625 C 3.441406 -0.765625 3.304688 -0.753906 3.140625 -0.734375 C 2.984375 -0.710938 2.835938 -0.675781 2.703125 -0.625 C 2.554688 -0.570312 2.4375 -0.5 2.34375 -0.40625 C 2.25 -0.3125 2.203125 -0.195312 2.203125 -0.0625 C 2.203125 0.0820312 2.253906 0.195312 2.359375 0.28125 C 2.460938 0.375 2.582031 0.441406 2.71875 0.484375 C 2.863281 0.535156 3.015625 0.570312 3.171875 0.59375 C 3.328125 0.613281 3.453125 0.625 3.546875 0.625 C 3.648438 0.625 3.78125 0.613281 3.9375 0.59375 C 4.101562 0.570312 4.253906 0.535156 4.390625 0.484375 C 4.535156 0.441406 4.660156 0.375 4.765625 0.28125 C 4.878906 0.195312 4.9375 0.0820312 4.9375 -0.0625 Z M 4.9375 -0.0625 "/></g></g></g><g fill="#111827" fill-opacity="1"><g transform="translate(36.951323, 7.103312)"><g/></g></g><g fill="#ffde59" fill-opacity="1"><g transform="translate(38.764947, 7.103312)"><g><path d="M 3.546875 -1.21875 C 3.628906 -1.15625 3.664062 -1.078125 3.65625 -0.984375 C 3.65625 -0.898438 3.617188 -0.828125 3.546875 -0.765625 L 3.375 -0.625 C 3.3125 -0.5625 3.234375 -0.523438 3.140625 -0.515625 C 3.054688 -0.515625 2.984375 -0.539062 2.921875 -0.59375 C 2.765625 -0.71875 2.59375 -0.878906 2.40625 -1.078125 C 2.226562 -1.285156 2.066406 -1.515625 1.921875 -1.765625 C 1.796875 -1.523438 1.648438 -1.300781 1.484375 -1.09375 C 1.316406 -0.882812 1.148438 -0.710938 0.984375 -0.578125 C 0.921875 -0.523438 0.847656 -0.5 0.765625 -0.5 C 0.679688 -0.5 0.601562 -0.519531 0.53125 -0.5625 L 0.359375 -0.703125 C 0.285156 -0.753906 0.25 -0.828125 0.25 -0.921875 C 0.25 -1.015625 0.289062 -1.09375 0.375 -1.15625 C 0.738281 -1.46875 1.003906 -1.835938 1.171875 -2.265625 C 1.335938 -2.703125 1.421875 -3.148438 1.421875 -3.609375 L 1.421875 -4.625 L 0.703125 -4.625 C 0.609375 -4.625 0.523438 -4.648438 0.453125 -4.703125 C 0.390625 -4.765625 0.359375 -4.84375 0.359375 -4.9375 L 0.359375 -5.1875 C 0.359375 -5.269531 0.390625 -5.335938 0.453125 -5.390625 C 0.523438 -5.453125 0.609375 -5.484375 0.703125 -5.484375 L 3.046875 -5.484375 C 3.140625 -5.484375 3.21875 -5.453125 3.28125 -5.390625 C 3.351562 -5.335938 3.390625 -5.269531 3.390625 -5.1875 L 3.390625 -4.9375 C 3.390625 -4.84375 3.351562 -4.765625 3.28125 -4.703125 C 3.21875 -4.648438 3.140625 -4.625 3.046875 -4.625 L 2.453125 -4.625 L 2.453125 -3.625 C 2.460938 -3.101562 2.554688 -2.648438 2.734375 -2.265625 C 2.910156 -1.890625 3.179688 -1.539062 3.546875 -1.21875 Z M 3.71875 0.65625 L 3.71875 -5.3125 C 3.71875 -5.382812 3.75 -5.453125 3.8125 -5.515625 C 3.875 -5.578125 3.953125 -5.609375 4.046875 -5.609375 L 4.375 -5.609375 C 4.476562 -5.609375 4.5625 -5.578125 4.625 -5.515625 C 4.6875 -5.453125 4.71875 -5.382812 4.71875 -5.3125 L 4.71875 -3.578125 L 5.3125 -3.578125 L 5.3125 -5.3125 C 5.3125 -5.382812 5.34375 -5.453125 5.40625 -5.515625 C 5.46875 -5.578125 5.546875 -5.609375 5.640625 -5.609375 L 5.96875 -5.609375 C 6.070312 -5.609375 6.15625 -5.578125 6.21875 -5.515625 C 6.28125 -5.453125 6.3125 -5.382812 6.3125 -5.3125 L 6.3125 0.8125 C 6.3125 0.894531 6.28125 0.96875 6.21875 1.03125 C 6.15625 1.09375 6.070312 1.125 5.96875 1.125 L 5.640625 1.125 C 5.546875 1.125 5.46875 1.09375 5.40625 1.03125 C 5.34375 0.96875 5.3125 0.894531 5.3125 0.8125 L 5.3125 -2.65625 L 4.71875 -2.65625 L 4.71875 0.65625 C 4.71875 0.738281 4.6875 0.8125 4.625 0.875 C 4.5625 0.9375 4.476562 0.96875 4.375 0.96875 L 4.046875 0.96875 C 3.953125 0.96875 3.875 0.9375 3.8125 0.875 C 3.75 0.8125 3.71875 0.738281 3.71875 0.65625 Z M 3.71875 0.65625 "/></g></g></g><g fill="#ffde59" fill-opacity="1"><g transform="translate(45.599223, 7.103312)"><g><path d="M 4.859375 -0.828125 L 1.53125 -0.828125 C 1.4375 -0.828125 1.351562 -0.859375 1.28125 -0.921875 C 1.21875 -0.984375 1.1875 -1.054688 1.1875 -1.140625 L 1.1875 -1.265625 C 1.1875 -1.347656 1.21875 -1.414062 1.28125 -1.46875 C 1.351562 -1.53125 1.4375 -1.5625 1.53125 -1.5625 L 5.578125 -1.5625 C 5.679688 -1.5625 5.765625 -1.53125 5.828125 -1.46875 C 5.890625 -1.414062 5.921875 -1.347656 5.921875 -1.265625 L 5.921875 -0.203125 C 5.921875 -0.117188 5.890625 -0.0507812 5.828125 0 C 5.765625 0.0625 5.679688 0.09375 5.578125 0.09375 L 2.296875 0.09375 L 2.296875 0.375 L 5.734375 0.375 C 5.828125 0.375 5.90625 0.398438 5.96875 0.453125 C 6.039062 0.515625 6.078125 0.585938 6.078125 0.671875 L 6.078125 0.8125 C 6.078125 0.894531 6.039062 0.96875 5.96875 1.03125 C 5.90625 1.09375 5.828125 1.125 5.734375 1.125 L 1.5625 1.125 C 1.46875 1.125 1.382812 1.09375 1.3125 1.03125 C 1.25 0.96875 1.21875 0.894531 1.21875 0.8125 L 1.21875 -0.28125 C 1.21875 -0.351562 1.25 -0.421875 1.3125 -0.484375 C 1.382812 -0.546875 1.46875 -0.578125 1.5625 -0.578125 L 4.859375 -0.578125 Z M 2.984375 -2.828125 L 2.984375 -2.609375 L 3.578125 -2.609375 C 3.816406 -2.609375 4.046875 -2.617188 4.265625 -2.640625 C 4.484375 -2.671875 4.691406 -2.710938 4.890625 -2.765625 L 4.890625 -5.296875 C 4.890625 -5.378906 4.921875 -5.453125 4.984375 -5.515625 C 5.046875 -5.578125 5.125 -5.609375 5.21875 -5.609375 L 5.609375 -5.609375 C 5.703125 -5.609375 5.78125 -5.578125 5.84375 -5.515625 C 5.914062 -5.453125 5.953125 -5.378906 5.953125 -5.296875 L 5.953125 -4.234375 L 6.515625 -4.234375 C 6.609375 -4.234375 6.691406 -4.203125 6.765625 -4.140625 C 6.835938 -4.078125 6.875 -4.003906 6.875 -3.921875 L 6.875 -3.640625 C 6.875 -3.554688 6.835938 -3.484375 6.765625 -3.421875 C 6.691406 -3.367188 6.609375 -3.34375 6.515625 -3.34375 L 5.953125 -3.34375 L 5.953125 -2.09375 C 5.953125 -2 5.914062 -1.921875 5.84375 -1.859375 C 5.78125 -1.804688 5.703125 -1.78125 5.609375 -1.78125 L 5.21875 -1.78125 C 5.132812 -1.78125 5.0625 -1.800781 5 -1.84375 C 4.9375 -1.894531 4.898438 -1.957031 4.890625 -2.03125 C 4.617188 -1.925781 4.375 -1.863281 4.15625 -1.84375 C 3.945312 -1.832031 3.738281 -1.828125 3.53125 -1.828125 L 0.625 -1.828125 C 0.53125 -1.828125 0.445312 -1.851562 0.375 -1.90625 C 0.3125 -1.96875 0.28125 -2.039062 0.28125 -2.125 L 0.28125 -2.296875 C 0.28125 -2.378906 0.3125 -2.453125 0.375 -2.515625 C 0.445312 -2.578125 0.53125 -2.609375 0.625 -2.609375 L 1.90625 -2.609375 L 1.90625 -2.828125 C 1.75 -2.859375 1.59375 -2.898438 1.4375 -2.953125 C 1.289062 -3.003906 1.160156 -3.070312 1.046875 -3.15625 C 0.921875 -3.25 0.816406 -3.351562 0.734375 -3.46875 C 0.660156 -3.59375 0.625 -3.738281 0.625 -3.90625 C 0.625 -3.976562 0.644531 -4.070312 0.6875 -4.1875 C 0.738281 -4.300781 0.84375 -4.410156 1 -4.515625 L 0.703125 -4.515625 C 0.609375 -4.515625 0.523438 -4.539062 0.453125 -4.59375 C 0.390625 -4.65625 0.359375 -4.734375 0.359375 -4.828125 L 0.359375 -4.96875 C 0.359375 -5.039062 0.390625 -5.109375 0.453125 -5.171875 C 0.523438 -5.234375 0.609375 -5.265625 0.703125 -5.265625 L 1.921875 -5.265625 L 1.921875 -5.5625 C 1.921875 -5.644531 1.953125 -5.710938 2.015625 -5.765625 C 2.078125 -5.828125 2.160156 -5.859375 2.265625 -5.859375 L 2.640625 -5.859375 C 2.734375 -5.859375 2.8125 -5.828125 2.875 -5.765625 C 2.945312 -5.710938 2.984375 -5.644531 2.984375 -5.5625 L 2.984375 -5.265625 L 4.15625 -5.265625 C 4.25 -5.265625 4.328125 -5.234375 4.390625 -5.171875 C 4.460938 -5.109375 4.5 -5.039062 4.5 -4.96875 L 4.5 -4.828125 C 4.5 -4.734375 4.460938 -4.65625 4.390625 -4.59375 C 4.328125 -4.539062 4.25 -4.515625 4.15625 -4.515625 L 3.90625 -4.515625 C 4.0625 -4.398438 4.160156 -4.289062 4.203125 -4.1875 C 4.253906 -4.082031 4.28125 -3.988281 4.28125 -3.90625 C 4.28125 -3.726562 4.238281 -3.578125 4.15625 -3.453125 C 4.070312 -3.328125 3.96875 -3.222656 3.84375 -3.140625 C 3.71875 -3.054688 3.578125 -2.988281 3.421875 -2.9375 C 3.265625 -2.894531 3.117188 -2.859375 2.984375 -2.828125 Z M 2.453125 -4.46875 C 2.253906 -4.46875 2.078125 -4.414062 1.921875 -4.3125 C 1.773438 -4.21875 1.703125 -4.101562 1.703125 -3.96875 C 1.703125 -3.84375 1.773438 -3.726562 1.921875 -3.625 C 2.078125 -3.53125 2.253906 -3.484375 2.453125 -3.484375 C 2.660156 -3.484375 2.835938 -3.53125 2.984375 -3.625 C 3.128906 -3.726562 3.203125 -3.84375 3.203125 -3.96875 C 3.203125 -4.101562 3.128906 -4.21875 2.984375 -4.3125 C 2.835938 -4.414062 2.660156 -4.46875 2.453125 -4.46875 Z M 2.453125 -4.46875 "/></g></g></g></g></g><g transform="matrix(1, 0, 0, 1, 65, 65)"><g clip-path="url(#3f411eaa21)"><g fill="#539cd8" fill-opacity="1"><g transform="translate(0.998126, 19.512171)"><g><path d="M 12.09375 -15.265625 L 12.09375 -10.265625 L 15.125 -10.265625 L 15.125 -15.609375 C 15.125 -15.847656 15.222656 -16.054688 15.421875 -16.234375 C 15.628906 -16.410156 15.867188 -16.5 16.140625 -16.5 L 17.25 -16.5 C 17.519531 -16.5 17.753906 -16.410156 17.953125 -16.234375 C 18.160156 -16.054688 18.265625 -15.847656 18.265625 -15.609375 L 18.265625 2.390625 C 18.265625 2.640625 18.160156 2.847656 17.953125 3.015625 C 17.753906 3.191406 17.519531 3.28125 17.25 3.28125 L 16.140625 3.28125 C 15.867188 3.28125 15.628906 3.191406 15.421875 3.015625 C 15.222656 2.847656 15.125 2.640625 15.125 2.390625 L 15.125 -7.65625 L 12.09375 -7.65625 L 12.09375 -2.359375 C 12.09375 -2.109375 11.988281 -1.894531 11.78125 -1.71875 C 11.582031 -1.550781 11.347656 -1.46875 11.078125 -1.46875 L 2.953125 -1.46875 C 2.660156 -1.46875 2.414062 -1.550781 2.21875 -1.71875 C 2.03125 -1.894531 1.9375 -2.109375 1.9375 -2.359375 L 1.9375 -15.265625 C 1.9375 -15.503906 2.03125 -15.710938 2.21875 -15.890625 C 2.414062 -16.078125 2.660156 -16.171875 2.953125 -16.171875 L 4.09375 -16.171875 C 4.363281 -16.171875 4.597656 -16.078125 4.796875 -15.890625 C 4.992188 -15.710938 5.09375 -15.503906 5.09375 -15.265625 L 5.09375 -11.171875 L 8.921875 -11.171875 L 8.921875 -15.265625 C 8.921875 -15.503906 9.015625 -15.710938 9.203125 -15.890625 C 9.398438 -16.078125 9.640625 -16.171875 9.921875 -16.171875 L 11.078125 -16.171875 C 11.347656 -16.171875 11.582031 -16.078125 11.78125 -15.890625 C 11.988281 -15.710938 12.09375 -15.503906 12.09375 -15.265625 Z M 5.09375 -8.59375 L 5.09375 -3.96875 L 8.921875 -3.96875 L 8.921875 -8.59375 Z M 5.09375 -8.59375 "/></g></g></g></g></g><g transform="matrix(1, 0, 0, 1, 47, 60)"><g clip-path="url(#4a2b8567c9)"><g fill="#539cd8" fill-opacity="1"><g transform="translate(0.761929, 19.713343)"><g><path d="M 15.109375 -7.59375 L 15.109375 -15.609375 C 15.109375 -15.847656 15.207031 -16.054688 15.40625 -16.234375 C 15.613281 -16.410156 15.851562 -16.5 16.125 -16.5 L 17.25 -16.5 C 17.519531 -16.5 17.753906 -16.410156 17.953125 -16.234375 C 18.160156 -16.054688 18.265625 -15.847656 18.265625 -15.609375 L 18.265625 -7.59375 C 18.265625 -7.332031 18.160156 -7.113281 17.953125 -6.9375 C 17.753906 -6.769531 17.519531 -6.6875 17.25 -6.6875 L 16.125 -6.6875 C 15.851562 -6.6875 15.613281 -6.769531 15.40625 -6.9375 C 15.207031 -7.113281 15.109375 -7.332031 15.109375 -7.59375 Z M 15.078125 -3.578125 L 5.53125 -3.578125 C 5.25 -3.578125 5.007812 -3.660156 4.8125 -3.828125 C 4.625 -4.003906 4.53125 -4.222656 4.53125 -4.484375 L 4.53125 -5.0625 C 4.53125 -5.300781 4.625 -5.507812 4.8125 -5.6875 C 5.007812 -5.875 5.25 -5.96875 5.53125 -5.96875 L 17.21875 -5.96875 C 17.488281 -5.96875 17.722656 -5.875 17.921875 -5.6875 C 18.128906 -5.507812 18.234375 -5.300781 18.234375 -5.0625 L 18.234375 -1.140625 C 18.234375 -0.890625 18.128906 -0.675781 17.921875 -0.5 C 17.722656 -0.332031 17.488281 -0.25 17.21875 -0.25 L 7.796875 -0.25 L 7.796875 0.859375 L 17.625 0.859375 C 17.914062 0.859375 18.15625 0.945312 18.34375 1.125 C 18.539062 1.300781 18.640625 1.507812 18.640625 1.75 L 18.640625 2.390625 C 18.640625 2.640625 18.539062 2.847656 18.34375 3.015625 C 18.15625 3.191406 17.914062 3.28125 17.625 3.28125 L 5.625 3.28125 C 5.351562 3.28125 5.113281 3.191406 4.90625 3.015625 C 4.707031 2.847656 4.609375 2.640625 4.609375 2.390625 L 4.609375 -1.59375 C 4.609375 -1.832031 4.707031 -2.039062 4.90625 -2.21875 C 5.113281 -2.40625 5.351562 -2.5 5.625 -2.5 L 15.078125 -2.5 Z M 6.578125 -16.40625 L 7.765625 -16.40625 C 8.035156 -16.40625 8.269531 -16.316406 8.46875 -16.140625 C 8.675781 -15.960938 8.78125 -15.753906 8.78125 -15.515625 L 8.78125 -14.921875 C 8.78125 -13.617188 9.144531 -12.445312 9.875 -11.40625 C 10.601562 -10.363281 11.5625 -9.59375 12.75 -9.09375 C 13.070312 -8.945312 13.265625 -8.726562 13.328125 -8.4375 C 13.390625 -8.144531 13.285156 -7.882812 13.015625 -7.65625 L 12.546875 -7.203125 C 12.421875 -7.097656 12.238281 -7.019531 12 -6.96875 C 11.769531 -6.914062 11.585938 -6.921875 11.453125 -6.984375 C 10.484375 -7.335938 9.660156 -7.773438 8.984375 -8.296875 C 8.304688 -8.816406 7.707031 -9.46875 7.1875 -10.25 C 6.726562 -9.550781 6.101562 -8.894531 5.3125 -8.28125 C 4.519531 -7.664062 3.65625 -7.148438 2.71875 -6.734375 C 2.539062 -6.640625 2.335938 -6.609375 2.109375 -6.640625 C 1.890625 -6.679688 1.710938 -6.769531 1.578125 -6.90625 L 1.171875 -7.3125 C 0.898438 -7.550781 0.796875 -7.8125 0.859375 -8.09375 C 0.921875 -8.375 1.113281 -8.597656 1.4375 -8.765625 C 2.695312 -9.359375 3.695312 -10.195312 4.4375 -11.28125 C 5.1875 -12.363281 5.5625 -13.578125 5.5625 -14.921875 L 5.5625 -15.515625 C 5.5625 -15.753906 5.65625 -15.960938 5.84375 -16.140625 C 6.039062 -16.316406 6.285156 -16.40625 6.578125 -16.40625 Z M 6.578125 -16.40625 "/></g></g></g></g></g><g transform="matrix(1, 0, 0, 1, 107, 62)"><g clip-path="url(#a771550a1a)"><g fill="#111827" fill-opacity="1"><g transform="translate(0.593924, 17.702454)"><g><path d="M 7.875 -12.671875 L 3.5625 -12.671875 C 3.3125 -12.671875 3.09375 -12.75 2.90625 -12.90625 C 2.71875 -13.0625 2.625 -13.257812 2.625 -13.5 L 2.625 -14.125 C 2.625 -14.34375 2.71875 -14.535156 2.90625 -14.703125 C 3.09375 -14.867188 3.3125 -14.953125 3.5625 -14.953125 L 15.4375 -14.953125 C 15.6875 -14.953125 15.898438 -14.867188 16.078125 -14.703125 C 16.253906 -14.535156 16.34375 -14.34375 16.34375 -14.125 L 16.34375 -13.5 C 16.34375 -13.257812 16.253906 -13.0625 16.078125 -12.90625 C 15.898438 -12.75 15.6875 -12.671875 15.4375 -12.671875 L 11 -12.671875 C 11.09375 -12.148438 11.3125 -11.664062 11.65625 -11.21875 C 12 -10.769531 12.421875 -10.359375 12.921875 -9.984375 C 13.429688 -9.597656 13.992188 -9.253906 14.609375 -8.953125 C 15.222656 -8.648438 15.847656 -8.394531 16.484375 -8.1875 C 16.835938 -8.0625 17.050781 -7.863281 17.125 -7.59375 C 17.195312 -7.332031 17.109375 -7.078125 16.859375 -6.828125 L 16.46875 -6.421875 C 16.375 -6.328125 16.210938 -6.257812 15.984375 -6.21875 C 15.753906 -6.175781 15.597656 -6.175781 15.515625 -6.21875 C 14.191406 -6.632812 13.019531 -7.15625 12 -7.78125 C 10.988281 -8.40625 10.15625 -9.132812 9.5 -9.96875 C 8.695312 -9.019531 7.78125 -8.25 6.75 -7.65625 C 5.726562 -7.070312 4.585938 -6.59375 3.328125 -6.21875 C 3.203125 -6.175781 3.035156 -6.175781 2.828125 -6.21875 C 2.617188 -6.257812 2.472656 -6.328125 2.390625 -6.421875 L 1.9375 -6.921875 C 1.726562 -7.128906 1.675781 -7.359375 1.78125 -7.609375 C 1.882812 -7.867188 2.085938 -8.054688 2.390625 -8.171875 C 3.046875 -8.390625 3.6875 -8.648438 4.3125 -8.953125 C 4.945312 -9.265625 5.519531 -9.609375 6.03125 -9.984375 C 6.53125 -10.359375 6.945312 -10.765625 7.28125 -11.203125 C 7.613281 -11.648438 7.8125 -12.140625 7.875 -12.671875 Z M 0.953125 -3.5625 L 0.953125 -4.1875 C 0.953125 -4.40625 1.039062 -4.597656 1.21875 -4.765625 C 1.40625 -4.929688 1.628906 -5.015625 1.890625 -5.015625 L 17.078125 -5.015625 C 17.328125 -5.015625 17.546875 -4.929688 17.734375 -4.765625 C 17.921875 -4.597656 18.015625 -4.40625 18.015625 -4.1875 L 18.015625 -3.5625 C 18.015625 -3.320312 17.921875 -3.117188 17.734375 -2.953125 C 17.546875 -2.796875 17.328125 -2.71875 17.078125 -2.71875 L 10.984375 -2.71875 L 10.984375 2.1875 C 10.984375 2.414062 10.890625 2.609375 10.703125 2.765625 C 10.523438 2.929688 10.304688 3.015625 10.046875 3.015625 L 8.984375 3.015625 C 8.734375 3.015625 8.515625 2.929688 8.328125 2.765625 C 8.148438 2.609375 8.0625 2.414062 8.0625 2.1875 L 8.0625 -2.71875 L 1.890625 -2.71875 C 1.628906 -2.71875 1.40625 -2.796875 1.21875 -2.953125 C 1.039062 -3.117188 0.953125 -3.320312 0.953125 -3.5625 Z M 0.953125 -3.5625 "/></g></g></g><g fill="#111827" fill-opacity="1"><g transform="translate(19.16373, 17.702454)"><g><path d="M 16.0625 -9.3125 L 16.0625 -6.546875 L 17.671875 -6.546875 C 17.921875 -6.546875 18.140625 -6.460938 18.328125 -6.296875 C 18.515625 -6.128906 18.609375 -5.9375 18.609375 -5.71875 L 18.609375 -4.890625 C 18.609375 -4.648438 18.515625 -4.453125 18.328125 -4.296875 C 18.140625 -4.140625 17.921875 -4.0625 17.671875 -4.0625 L 16.0625 -4.0625 L 16.0625 2.203125 C 16.0625 2.441406 15.96875 2.640625 15.78125 2.796875 C 15.601562 2.953125 15.382812 3.03125 15.125 3.03125 L 14.09375 3.03125 C 13.84375 3.03125 13.625 2.953125 13.4375 2.796875 C 13.257812 2.640625 13.171875 2.441406 13.171875 2.203125 L 13.171875 -14.40625 C 13.171875 -14.632812 13.257812 -14.832031 13.4375 -15 C 13.625 -15.164062 13.84375 -15.25 14.09375 -15.25 L 15.125 -15.25 C 15.382812 -15.25 15.601562 -15.164062 15.78125 -15 C 15.96875 -14.832031 16.0625 -14.632812 16.0625 -14.40625 L 16.0625 -11.828125 L 17.671875 -11.828125 C 17.921875 -11.828125 18.140625 -11.742188 18.328125 -11.578125 C 18.515625 -11.410156 18.609375 -11.21875 18.609375 -11 L 18.609375 -10.15625 C 18.609375 -9.914062 18.515625 -9.710938 18.328125 -9.546875 C 18.140625 -9.390625 17.921875 -9.3125 17.671875 -9.3125 Z M 11.421875 -7.984375 C 11.421875 -7.191406 11.304688 -6.375 11.078125 -5.53125 C 10.859375 -4.6875 10.535156 -3.914062 10.109375 -3.21875 C 9.660156 -2.507812 9.097656 -1.929688 8.421875 -1.484375 C 7.753906 -1.046875 6.976562 -0.828125 6.09375 -0.828125 C 5.144531 -0.828125 4.335938 -1.054688 3.671875 -1.515625 C 3.015625 -1.984375 2.46875 -2.570312 2.03125 -3.28125 C 1.601562 -3.988281 1.289062 -4.757812 1.09375 -5.59375 C 0.894531 -6.4375 0.796875 -7.234375 0.796875 -7.984375 C 0.796875 -8.773438 0.898438 -9.585938 1.109375 -10.421875 C 1.328125 -11.265625 1.648438 -12.035156 2.078125 -12.734375 C 2.503906 -13.421875 3.050781 -13.988281 3.71875 -14.4375 C 4.394531 -14.894531 5.1875 -15.125 6.09375 -15.125 C 7.019531 -15.125 7.816406 -14.882812 8.484375 -14.40625 C 9.160156 -13.9375 9.71875 -13.347656 10.15625 -12.640625 C 10.582031 -11.929688 10.898438 -11.160156 11.109375 -10.328125 C 11.316406 -9.503906 11.421875 -8.722656 11.421875 -7.984375 Z M 8.421875 -8 C 8.421875 -8.363281 8.390625 -8.8125 8.328125 -9.34375 C 8.265625 -9.882812 8.148438 -10.394531 7.984375 -10.875 C 7.804688 -11.375 7.5625 -11.800781 7.25 -12.15625 C 6.945312 -12.507812 6.5625 -12.6875 6.09375 -12.6875 C 5.59375 -12.6875 5.1875 -12.5 4.875 -12.125 C 4.5625 -11.75 4.320312 -11.304688 4.15625 -10.796875 C 3.988281 -10.296875 3.878906 -9.773438 3.828125 -9.234375 C 3.773438 -8.703125 3.75 -8.28125 3.75 -7.96875 C 3.75 -7.59375 3.78125 -7.140625 3.84375 -6.609375 C 3.90625 -6.085938 4.019531 -5.578125 4.1875 -5.078125 C 4.351562 -4.585938 4.585938 -4.171875 4.890625 -3.828125 C 5.203125 -3.484375 5.609375 -3.3125 6.109375 -3.3125 C 6.609375 -3.3125 7.003906 -3.492188 7.296875 -3.859375 C 7.597656 -4.222656 7.84375 -4.65625 8.03125 -5.15625 C 8.175781 -5.664062 8.273438 -6.179688 8.328125 -6.703125 C 8.390625 -7.234375 8.421875 -7.664062 8.421875 -8 Z M 8.421875 -8 "/></g></g></g><g fill="#111827" fill-opacity="1"><g transform="translate(37.733536, 17.702454)"><g><path d="M 7.53125 -12.6875 L 2.4375 -12.6875 C 2.1875 -12.6875 1.96875 -12.765625 1.78125 -12.921875 C 1.59375 -13.085938 1.5 -13.285156 1.5 -13.515625 L 1.5 -14.140625 C 1.5 -14.359375 1.59375 -14.550781 1.78125 -14.71875 C 1.96875 -14.882812 2.1875 -14.96875 2.4375 -14.96875 L 9.75 -14.96875 C 10.019531 -14.96875 10.242188 -14.882812 10.421875 -14.71875 C 10.597656 -14.550781 10.6875 -14.359375 10.6875 -14.140625 L 10.6875 -13.8125 C 10.65625 -12.488281 10.421875 -11.316406 9.984375 -10.296875 C 9.554688 -9.285156 8.972656 -8.390625 8.234375 -7.609375 C 7.515625 -6.835938 6.671875 -6.179688 5.703125 -5.640625 C 4.742188 -5.109375 3.738281 -4.675781 2.6875 -4.34375 C 2.539062 -4.300781 2.363281 -4.300781 2.15625 -4.34375 C 1.945312 -4.382812 1.800781 -4.453125 1.71875 -4.546875 L 1.359375 -4.921875 C 1.117188 -5.171875 1.03125 -5.4375 1.09375 -5.71875 C 1.15625 -6 1.359375 -6.203125 1.703125 -6.328125 C 3.367188 -6.953125 4.726562 -7.8125 5.78125 -8.90625 C 6.863281 -10 7.445312 -11.257812 7.53125 -12.6875 Z M 14.125 -15.21875 L 15.140625 -15.21875 C 15.398438 -15.21875 15.617188 -15.132812 15.796875 -14.96875 C 15.984375 -14.800781 16.078125 -14.609375 16.078125 -14.390625 L 16.078125 -11.25 L 17.671875 -11.25 C 17.921875 -11.25 18.140625 -11.164062 18.328125 -11 C 18.515625 -10.832031 18.609375 -10.640625 18.609375 -10.421875 L 18.609375 -9.625 C 18.609375 -9.394531 18.515625 -9.195312 18.328125 -9.03125 C 18.140625 -8.875 17.921875 -8.796875 17.671875 -8.796875 L 16.078125 -8.796875 L 16.078125 -2.578125 C 16.078125 -2.335938 15.984375 -2.140625 15.796875 -1.984375 C 15.617188 -1.828125 15.398438 -1.75 15.140625 -1.75 L 14.125 -1.75 C 13.875 -1.75 13.65625 -1.828125 13.46875 -1.984375 C 13.28125 -2.140625 13.1875 -2.335938 13.1875 -2.578125 L 13.1875 -14.390625 C 13.1875 -14.609375 13.28125 -14.800781 13.46875 -14.96875 C 13.65625 -15.132812 13.875 -15.21875 14.125 -15.21875 Z M 4.59375 -3.65625 L 5.671875 -3.65625 C 5.941406 -3.65625 6.164062 -3.570312 6.34375 -3.40625 C 6.519531 -3.238281 6.609375 -3.046875 6.609375 -2.828125 L 6.609375 0.734375 L 15.5625 0.734375 C 15.8125 0.734375 16.023438 0.816406 16.203125 0.984375 C 16.390625 1.148438 16.484375 1.34375 16.484375 1.5625 L 16.484375 2.203125 C 16.484375 2.441406 16.390625 2.640625 16.203125 2.796875 C 16.023438 2.953125 15.8125 3.03125 15.5625 3.03125 L 4.59375 3.03125 C 4.34375 3.03125 4.125 2.953125 3.9375 2.796875 C 3.75 2.640625 3.65625 2.441406 3.65625 2.203125 L 3.65625 -2.828125 C 3.65625 -3.046875 3.75 -3.238281 3.9375 -3.40625 C 4.125 -3.570312 4.34375 -3.65625 4.59375 -3.65625 Z M 4.59375 -3.65625 "/></g></g></g><g fill="#111827" fill-opacity="1"><g transform="translate(56.30622, 17.702454)"><g><path d="M 15.15625 -3.90625 L 11.0625 -3.90625 L 11.0625 -1.0625 L 16.90625 -1.0625 C 17.15625 -1.0625 17.375 -0.976562 17.5625 -0.8125 C 17.75 -0.644531 17.84375 -0.453125 17.84375 -0.234375 L 17.84375 0.421875 C 17.84375 0.648438 17.75 0.84375 17.5625 1 C 17.375 1.164062 17.15625 1.25 16.90625 1.25 L 2.078125 1.25 C 1.828125 1.25 1.609375 1.164062 1.421875 1 C 1.234375 0.84375 1.140625 0.648438 1.140625 0.421875 L 1.140625 -0.203125 C 1.140625 -0.429688 1.234375 -0.628906 1.421875 -0.796875 C 1.609375 -0.960938 1.828125 -1.046875 2.078125 -1.046875 L 8.171875 -1.046875 L 8.171875 -3.90625 L 3.875 -3.90625 C 3.601562 -3.90625 3.378906 -3.984375 3.203125 -4.140625 C 3.023438 -4.304688 2.9375 -4.503906 2.9375 -4.734375 L 2.9375 -14.09375 C 2.9375 -14.320312 3.023438 -14.519531 3.203125 -14.6875 C 3.378906 -14.851562 3.601562 -14.9375 3.875 -14.9375 L 4.890625 -14.9375 C 5.140625 -14.9375 5.351562 -14.851562 5.53125 -14.6875 C 5.707031 -14.519531 5.796875 -14.320312 5.796875 -14.09375 L 5.796875 -11.390625 L 13.203125 -11.390625 L 13.203125 -14.09375 C 13.203125 -14.320312 13.296875 -14.519531 13.484375 -14.6875 C 13.671875 -14.851562 13.890625 -14.9375 14.140625 -14.9375 L 15.15625 -14.9375 C 15.425781 -14.9375 15.648438 -14.851562 15.828125 -14.6875 C 16.003906 -14.519531 16.09375 -14.320312 16.09375 -14.09375 L 16.09375 -4.734375 C 16.09375 -4.503906 16.003906 -4.304688 15.828125 -4.140625 C 15.648438 -3.984375 15.425781 -3.90625 15.15625 -3.90625 Z M 5.796875 -9.109375 L 5.796875 -6.21875 L 13.203125 -6.21875 L 13.203125 -9.109375 Z M 5.796875 -9.109375 "/></g></g></g><g fill="#111827" fill-opacity="1"><g transform="translate(74.876026, 17.702454)"><g><path d="M 11.0625 -3.15625 L 11.0625 -1.0625 L 16.90625 -1.0625 C 17.15625 -1.0625 17.375 -0.976562 17.5625 -0.8125 C 17.75 -0.644531 17.84375 -0.453125 17.84375 -0.234375 L 17.84375 0.421875 C 17.84375 0.648438 17.75 0.84375 17.5625 1 C 17.375 1.164062 17.15625 1.25 16.90625 1.25 L 2.078125 1.25 C 1.828125 1.25 1.609375 1.164062 1.421875 1 C 1.234375 0.84375 1.140625 0.648438 1.140625 0.421875 L 1.140625 -0.203125 C 1.140625 -0.429688 1.234375 -0.628906 1.421875 -0.796875 C 1.609375 -0.960938 1.828125 -1.046875 2.078125 -1.046875 L 8.171875 -1.046875 L 8.171875 -3.09375 C 7.503906 -3.175781 6.851562 -3.359375 6.21875 -3.640625 C 5.582031 -3.929688 5.015625 -4.289062 4.515625 -4.71875 C 4.015625 -5.164062 3.609375 -5.671875 3.296875 -6.234375 C 2.992188 -6.804688 2.84375 -7.4375 2.84375 -8.125 C 2.84375 -8.582031 2.960938 -9.113281 3.203125 -9.71875 C 3.441406 -10.332031 3.941406 -10.910156 4.703125 -11.453125 L 3.25 -11.453125 C 3 -11.453125 2.78125 -11.53125 2.59375 -11.6875 C 2.40625 -11.851562 2.3125 -12.054688 2.3125 -12.296875 L 2.3125 -12.890625 C 2.3125 -13.117188 2.40625 -13.3125 2.59375 -13.46875 C 2.78125 -13.632812 3 -13.71875 3.25 -13.71875 L 8.03125 -13.71875 L 8.03125 -14.9375 C 8.03125 -15.15625 8.117188 -15.347656 8.296875 -15.515625 C 8.472656 -15.679688 8.6875 -15.765625 8.9375 -15.765625 L 10.03125 -15.765625 C 10.289062 -15.765625 10.507812 -15.679688 10.6875 -15.515625 C 10.863281 -15.347656 10.953125 -15.15625 10.953125 -14.9375 L 10.953125 -13.71875 L 15.78125 -13.71875 C 16.03125 -13.71875 16.25 -13.632812 16.4375 -13.46875 C 16.625 -13.3125 16.71875 -13.117188 16.71875 -12.890625 L 16.71875 -12.296875 C 16.71875 -12.054688 16.625 -11.851562 16.4375 -11.6875 C 16.25 -11.53125 16.03125 -11.453125 15.78125 -11.453125 L 14.34375 -11.453125 C 15.070312 -10.867188 15.550781 -10.289062 15.78125 -9.71875 C 16.007812 -9.144531 16.125 -8.613281 16.125 -8.125 C 16.125 -7.425781 15.96875 -6.796875 15.65625 -6.234375 C 15.34375 -5.671875 14.9375 -5.171875 14.4375 -4.734375 C 13.945312 -4.328125 13.398438 -3.988281 12.796875 -3.71875 C 12.191406 -3.445312 11.613281 -3.257812 11.0625 -3.15625 Z M 13.203125 -8.34375 C 13.203125 -8.8125 13.085938 -9.234375 12.859375 -9.609375 C 12.628906 -9.992188 12.335938 -10.316406 11.984375 -10.578125 C 11.628906 -10.859375 11.234375 -11.070312 10.796875 -11.21875 C 10.367188 -11.363281 9.9375 -11.4375 9.5 -11.4375 C 9.070312 -11.4375 8.628906 -11.363281 8.171875 -11.21875 C 7.722656 -11.070312 7.328125 -10.859375 6.984375 -10.578125 C 6.609375 -10.316406 6.3125 -9.992188 6.09375 -9.609375 C 5.875 -9.234375 5.765625 -8.8125 5.765625 -8.34375 C 5.765625 -7.851562 5.878906 -7.414062 6.109375 -7.03125 C 6.335938 -6.65625 6.640625 -6.335938 7.015625 -6.078125 C 7.359375 -5.804688 7.75 -5.601562 8.1875 -5.46875 C 8.632812 -5.332031 9.070312 -5.265625 9.5 -5.265625 C 9.9375 -5.265625 10.378906 -5.335938 10.828125 -5.484375 C 11.273438 -5.628906 11.671875 -5.835938 12.015625 -6.109375 C 12.367188 -6.378906 12.65625 -6.703125 12.875 -7.078125 C 13.09375 -7.460938 13.203125 -7.882812 13.203125 -8.34375 Z M 13.203125 -8.34375 "/></g></g></g><g fill="#111827" fill-opacity="1"><g transform="translate(93.44775, 17.702454)"><g><path d="M 10.515625 -3.25 L 10.515625 -9.796875 L 8.984375 -9.796875 C 8.734375 -9.796875 8.515625 -9.875 8.328125 -10.03125 C 8.148438 -10.195312 8.0625 -10.394531 8.0625 -10.625 L 8.0625 -11.234375 C 8.0625 -11.453125 8.148438 -11.644531 8.328125 -11.8125 C 8.515625 -11.976562 8.734375 -12.0625 8.984375 -12.0625 L 10.515625 -12.0625 L 10.515625 -14.40625 C 10.515625 -14.632812 10.601562 -14.832031 10.78125 -15 C 10.96875 -15.164062 11.191406 -15.25 11.453125 -15.25 L 12.328125 -15.25 C 12.578125 -15.25 12.796875 -15.164062 12.984375 -15 C 13.171875 -14.832031 13.265625 -14.632812 13.265625 -14.40625 L 13.265625 -3.25 C 13.265625 -3.007812 13.171875 -2.804688 12.984375 -2.640625 C 12.796875 -2.484375 12.578125 -2.40625 12.328125 -2.40625 L 11.453125 -2.40625 C 11.191406 -2.40625 10.96875 -2.484375 10.78125 -2.640625 C 10.601562 -2.804688 10.515625 -3.007812 10.515625 -3.25 Z M 16.203125 -2.203125 L 15.328125 -2.203125 C 15.078125 -2.203125 14.859375 -2.28125 14.671875 -2.4375 C 14.492188 -2.601562 14.40625 -2.800781 14.40625 -3.03125 L 14.40625 -14.40625 C 14.40625 -14.632812 14.492188 -14.832031 14.671875 -15 C 14.859375 -15.164062 15.078125 -15.25 15.328125 -15.25 L 16.203125 -15.25 C 16.460938 -15.25 16.679688 -15.164062 16.859375 -15 C 17.046875 -14.832031 17.140625 -14.632812 17.140625 -14.40625 L 17.140625 -3.03125 C 17.140625 -2.800781 17.046875 -2.601562 16.859375 -2.4375 C 16.679688 -2.28125 16.460938 -2.203125 16.203125 -2.203125 Z M 5.28125 -3.65625 L 6.34375 -3.65625 C 6.59375 -3.65625 6.8125 -3.570312 7 -3.40625 C 7.1875 -3.238281 7.28125 -3.046875 7.28125 -2.828125 L 7.28125 0.734375 L 16.578125 0.734375 C 16.828125 0.734375 17.046875 0.816406 17.234375 0.984375 C 17.421875 1.148438 17.515625 1.34375 17.515625 1.5625 L 17.515625 2.203125 C 17.515625 2.441406 17.421875 2.640625 17.234375 2.796875 C 17.046875 2.953125 16.828125 3.03125 16.578125 3.03125 L 5.28125 3.03125 C 5.03125 3.03125 4.8125 2.953125 4.625 2.796875 C 4.4375 2.640625 4.34375 2.441406 4.34375 2.203125 L 4.34375 -2.828125 C 4.34375 -3.046875 4.4375 -3.238281 4.625 -3.40625 C 4.8125 -3.570312 5.03125 -3.65625 5.28125 -3.65625 Z M 9.484375 -6.796875 C 9.691406 -6.628906 9.804688 -6.425781 9.828125 -6.1875 C 9.847656 -5.945312 9.753906 -5.734375 9.546875 -5.546875 L 9.234375 -5.265625 C 9.097656 -5.140625 8.914062 -5.0625 8.6875 -5.03125 C 8.46875 -5 8.273438 -5.035156 8.109375 -5.140625 C 7.460938 -5.492188 6.929688 -5.894531 6.515625 -6.34375 C 6.097656 -6.800781 5.703125 -7.300781 5.328125 -7.84375 C 4.953125 -7.25 4.523438 -6.703125 4.046875 -6.203125 C 3.566406 -5.703125 2.976562 -5.25 2.28125 -4.84375 C 2.144531 -4.757812 1.96875 -4.71875 1.75 -4.71875 C 1.539062 -4.71875 1.375 -4.765625 1.25 -4.859375 L 0.890625 -5.140625 C 0.628906 -5.316406 0.503906 -5.53125 0.515625 -5.78125 C 0.535156 -6.039062 0.671875 -6.265625 0.921875 -6.453125 C 1.867188 -7.109375 2.597656 -7.925781 3.109375 -8.90625 C 3.628906 -9.894531 3.890625 -10.960938 3.890625 -12.109375 L 3.890625 -14.265625 C 3.890625 -14.484375 3.976562 -14.675781 4.15625 -14.84375 C 4.34375 -15.007812 4.566406 -15.09375 4.828125 -15.09375 L 5.765625 -15.09375 C 6.023438 -15.09375 6.242188 -15.007812 6.421875 -14.84375 C 6.609375 -14.675781 6.703125 -14.484375 6.703125 -14.265625 L 6.703125 -12.109375 C 6.703125 -10.953125 6.945312 -9.929688 7.4375 -9.046875 C 7.9375 -8.171875 8.617188 -7.421875 9.484375 -6.796875 Z M 9.484375 -6.796875 "/></g></g></g><g fill="#111827" fill-opacity="1"><g transform="translate(112.017556, 17.702454)"><g><path d="M 9.4375 -1.265625 L 2.71875 -1.265625 C 2.457031 -1.265625 2.234375 -1.34375 2.046875 -1.5 C 1.867188 -1.664062 1.78125 -1.863281 1.78125 -2.09375 L 1.78125 -14.03125 C 1.78125 -14.257812 1.867188 -14.457031 2.046875 -14.625 C 2.234375 -14.789062 2.457031 -14.875 2.71875 -14.875 L 9.96875 -14.875 C 10.226562 -14.875 10.445312 -14.789062 10.625 -14.625 C 10.800781 -14.457031 10.890625 -14.257812 10.890625 -14.03125 L 10.890625 -13.390625 C 10.890625 -13.160156 10.800781 -12.960938 10.625 -12.796875 C 10.445312 -12.640625 10.226562 -12.5625 9.96875 -12.5625 L 4.703125 -12.5625 L 4.703125 -9.4375 L 9.25 -9.4375 C 9.5 -9.4375 9.71875 -9.351562 9.90625 -9.1875 C 10.09375 -9.019531 10.1875 -8.828125 10.1875 -8.609375 L 10.1875 -8.03125 C 10.1875 -7.789062 10.09375 -7.59375 9.90625 -7.4375 C 9.71875 -7.28125 9.5 -7.203125 9.25 -7.203125 L 4.703125 -7.203125 L 4.703125 -3.5625 L 9.734375 -3.5625 C 10.035156 -3.5625 10.382812 -3.570312 10.78125 -3.59375 C 11.175781 -3.613281 11.566406 -3.644531 11.953125 -3.6875 C 12.242188 -3.707031 12.488281 -3.632812 12.6875 -3.46875 C 12.894531 -3.300781 13 -3.09375 13 -2.84375 L 13 -2.28125 C 13 -2.09375 12.925781 -1.914062 12.78125 -1.75 C 12.632812 -1.59375 12.457031 -1.503906 12.25 -1.484375 C 11.757812 -1.398438 11.273438 -1.34375 10.796875 -1.3125 C 10.328125 -1.28125 9.875 -1.265625 9.4375 -1.265625 Z M 11.0625 -8.3125 L 11.0625 -9.09375 C 11.0625 -9.3125 11.15625 -9.503906 11.34375 -9.671875 C 11.53125 -9.835938 11.75 -9.921875 12 -9.921875 L 13.96875 -9.921875 L 13.96875 -14.40625 C 13.96875 -14.632812 14.0625 -14.832031 14.25 -15 C 14.4375 -15.164062 14.65625 -15.25 14.90625 -15.25 L 15.9375 -15.25 C 16.175781 -15.25 16.390625 -15.164062 16.578125 -15 C 16.765625 -14.832031 16.859375 -14.632812 16.859375 -14.40625 L 16.859375 2.203125 C 16.859375 2.441406 16.765625 2.640625 16.578125 2.796875 C 16.390625 2.953125 16.175781 3.03125 15.9375 3.03125 L 14.90625 3.03125 C 14.65625 3.03125 14.4375 2.953125 14.25 2.796875 C 14.0625 2.640625 13.96875 2.441406 13.96875 2.203125 L 13.96875 -7.484375 L 12 -7.484375 C 11.75 -7.484375 11.53125 -7.5625 11.34375 -7.71875 C 11.15625 -7.882812 11.0625 -8.082031 11.0625 -8.3125 Z M 11.0625 -8.3125 "/></g></g></g></g></g></svg>